# xmcd CD database file
#
# Track frame offsets:
#	150
#	22087
#	43800
#	65775
#
# Disc length: 1163 seconds
#
# Revision: 0
# Processed by: cddbd v1.5PL3 Copyright (c) Steve Scherf et al.
# Submitted via: CDex 1.50beta9
#
DISCID=38048904
DTITLE=ノンキーズ - 恋花火
DYEAR=1997
DGENRE=J-POP
TTITLE0=恋花火
TTITLE1=最後のＬＯＶＥ　ＳＯＮＧ
TTITLE2=恋花火　カラオケ
TTITLE3=最後のＬＯＶＥ　ＳＯＮＧ　カラオケ
EXTD=YEAR: 1997
EXTT0=
EXTT1=
EXTT2=
EXTT3=
PLAYORDER=
